<?xml version="1.0" standalone="no"?>
<!DOCTYPE svg PUBLIC "-//W3C//DTD SVG 20010904//EN"
 "http://www.w3.org/TR/2001/REC-SVG-20010904/DTD/svg10.dtd">
<svg version="1.0" xmlns="http://www.w3.org/2000/svg"
 width="630.000000pt" height="396.000000pt" viewBox="0 0 630.000000 396.000000"
 preserveAspectRatio="xMidYMid meet">

<g transform="translate(0.000000,396.000000) scale(0.100000,-0.100000)"
fill="#000000" stroke="none">
<path d="M4935 3841 c-44 -16 -109 -42 -145 -58 -146 -67 -222 -86 -412 -107
-165 -19 -229 -38 -268 -83 -43 -49 -54 -101 -40 -194 8 -57 8 -89 0 -119 -6
-22 -13 -40 -15 -40 -3 0 -44 23 -92 50 -105 61 -166 80 -249 80 -93 0 -120
-9 -173 -56 -29 -26 -79 -56 -121 -73 -79 -33 -110 -55 -110 -81 0 -23 13 -33
106 -79 44 -21 93 -53 109 -71 17 -17 42 -38 58 -46 15 -8 27 -19 27 -24 0
-19 -94 -71 -165 -91 -103 -30 -143 -49 -170 -81 -42 -49 -49 -90 -36 -202 34
-301 33 -339 -13 -486 -35 -111 -41 -168 -23 -213 15 -34 20 -37 54 -37 24 0
52 9 74 25 38 25 49 24 49 -5 0 -27 43 -60 79 -60 44 0 96 52 112 112 10 38
17 46 48 55 32 10 37 9 59 -14 19 -20 29 -24 54 -19 42 8 67 32 90 84 14 31
25 42 41 42 13 0 33 7 45 16 22 15 24 14 43 -10 29 -37 70 -35 103 5 14 17 27
40 28 52 0 12 2 28 2 36 1 8 15 18 33 23 40 10 90 68 99 114 10 56 -2 139 -30
201 -15 31 -25 57 -23 59 1 2 39 -8 82 -22 93 -30 166 -28 275 5 60 19 68 19
121 6 32 -9 122 -43 201 -78 137 -59 146 -62 225 -62 72 0 84 3 107 24 29 27
33 58 11 87 -19 26 -19 34 4 34 10 0 51 7 91 16 84 19 133 55 133 96 0 23 5
27 41 32 57 9 119 46 130 78 12 35 -7 73 -45 90 l-28 13 30 31 c59 61 21 130
-74 136 -31 3 -37 7 -37 26 0 13 -11 34 -25 47 -21 22 -33 25 -98 25 -88 0
-140 -17 -292 -92 -103 -51 -322 -139 -341 -137 -5 0 -26 20 -47 44 l-38 43
54 16 c58 17 107 49 107 71 0 7 13 16 29 20 45 10 65 38 58 84 -3 28 -1 41 9
45 8 3 22 19 33 36 10 17 34 39 52 48 46 23 63 59 43 90 -14 21 -13 25 6 49
11 14 20 39 20 56 0 21 11 40 40 68 44 43 54 90 23 107 -15 9 -13 15 15 58 37
56 43 108 13 124 -31 16 -71 12 -156 -19z m163 -18 c8 -54 -100 -173 -204
-224 -35 -18 -64 -33 -64 -34 0 -2 28 0 63 2 79 7 102 -10 93 -66 -10 -65
-123 -141 -210 -141 -17 0 -18 -2 -6 -10 8 -5 27 -10 41 -10 36 0 63 -32 55
-64 -11 -43 -167 -116 -249 -116 -40 0 -25 -16 21 -24 43 -6 92 -40 92 -61 0
-19 -39 -44 -96 -61 -47 -14 -48 -14 -123 25 -42 21 -103 46 -136 55 -99 28
-197 66 -253 100 -48 28 -52 33 -45 56 4 14 7 81 5 150 -3 118 -2 127 20 160
42 62 87 78 290 104 194 24 288 50 444 122 111 52 152 63 209 61 43 -2 50 -5
53 -24z m-1338 -553 c33 -11 101 -45 152 -77 122 -74 196 -107 299 -133 105
-27 204 -75 294 -143 57 -43 76 -64 104 -120 44 -87 48 -152 11 -192 -33 -35
-63 -50 -149 -74 l-71 -20 -44 58 c-102 133 -255 234 -385 256 -33 5 -60 21
-106 60 -34 29 -71 57 -81 63 -18 10 -18 12 5 36 20 21 23 33 19 74 -3 28 -14
63 -26 79 -30 43 -95 84 -141 90 -35 5 -44 2 -71 -25 -16 -17 -30 -41 -30 -54
0 -35 47 -124 81 -152 34 -29 36 -36 11 -36 -31 0 -100 57 -122 99 -23 45 -25
117 -6 170 9 25 22 38 47 47 52 19 142 16 209 -6z m-45 -88 c111 -75 105 -223
-9 -206 -56 9 -82 27 -117 82 -39 61 -39 112 -2 142 33 26 70 20 128 -18z
m1665 -75 c35 -18 37 -57 5 -96 -31 -36 -140 -91 -240 -119 -66 -20 -416 -86
-419 -80 -1 2 -10 15 -19 30 -9 15 -17 31 -17 36 0 5 48 28 108 50 59 22 168
70 242 106 74 36 153 70 175 75 59 13 136 13 165 -2z m-1601 -175 c236 -159
444 -455 429 -612 -5 -55 -36 -103 -79 -125 -45 -24 -102 -5 -139 46 -16 22
-31 46 -33 52 -10 29 -15 -3 -8 -59 13 -111 -23 -169 -106 -169 -56 0 -92 36
-94 93 -1 20 -5 48 -9 62 -7 22 -8 20 -9 -15 -4 -142 -88 -265 -161 -235 -34
14 -51 49 -57 123 -3 32 -9 60 -13 62 -4 2 -20 -34 -35 -82 -31 -94 -68 -150
-134 -200 -51 -39 -95 -44 -112 -11 -18 33 -5 141 27 238 27 79 29 94 26 220
-1 74 -9 182 -18 239 -14 96 -14 108 1 148 21 55 63 89 133 109 121 33 149 46
212 94 79 60 116 64 179 22z m1743 -88 c88 -42 53 -117 -66 -144 -42 -9 -50
-8 -72 9 -48 37 -121 44 -398 36 -266 -7 -325 2 -164 24 46 7 106 16 133 21
28 5 124 23 215 40 91 16 174 32 185 34 38 9 130 -2 167 -20z m-746 -243 c91
-33 224 -61 293 -61 53 0 106 -27 116 -61 5 -16 0 -28 -19 -48 -24 -23 -33
-26 -99 -25 -62 1 -85 7 -167 43 -83 37 -203 85 -264 105 -17 6 -14 11 20 41
21 19 39 34 40 35 0 0 36 -13 80 -29z"/>
<path d="M3601 3136 c-18 -22 4 -58 32 -54 28 4 35 38 11 55 -23 17 -29 16
-43 -1z"/>
<path d="M815 2985 c-272 -49 -420 -193 -419 -405 1 -122 48 -196 153 -243 35
-15 61 -18 131 -15 49 1 91 6 95 10 4 3 -11 23 -33 42 -107 97 -122 313 -32
456 33 52 97 117 106 107 23 -23 25 -682 3 -810 -6 -33 -9 -61 -7 -63 3 -2 40
-11 83 -20 94 -19 198 -60 251 -99 21 -16 69 -58 106 -93 l67 -65 90 7 c95 7
167 24 205 49 41 27 70 103 69 182 0 120 -76 250 -175 299 -86 43 -182 35
-247 -21 -44 -37 -58 -78 -46 -139 12 -68 95 -118 95 -59 0 44 27 82 75 105
76 37 160 13 193 -54 33 -66 -38 -132 -157 -145 -138 -14 -198 8 -239 90 -34
68 -42 175 -42 557 l0 342 -127 -1 c-71 0 -160 -7 -198 -14z"/>
<path d="M5502 2569 c-92 -18 -152 -81 -152 -159 0 -50 22 -91 60 -114 43 -25
60 -21 60 13 0 36 42 89 87 107 18 8 68 14 115 14 67 0 90 -4 118 -21 47 -29
59 -48 60 -90 0 -41 -25 -70 -82 -94 -50 -20 -259 -20 -393 0 -313 48 -391 57
-495 58 -253 0 -449 -91 -521 -242 -21 -44 -40 -191 -25 -191 4 0 21 7 38 16
48 25 158 21 210 -8 62 -34 99 -92 95 -148 -2 -25 -7 -53 -11 -62 -7 -15 -4
-16 31 -6 70 19 163 75 163 98 0 4 -23 10 -52 13 -116 14 -198 87 -206 181 -6
80 5 122 44 166 41 45 83 67 159 81 111 20 241 -17 415 -119 111 -65 216 -116
295 -143 98 -34 237 -33 313 0 104 47 146 127 141 268 -3 75 -9 98 -36 153
-89 181 -248 265 -431 229z"/>
<path d="M2675 2527 c-105 -28 -166 -82 -183 -164 -25 -113 34 -205 188 -298
91 -54 138 -92 155 -126 22 -41 19 -63 -12 -94 -25 -24 -33 -27 -81 -23 -65 6
-102 32 -121 85 -13 37 -13 44 6 81 l20 41 -39 16 c-42 16 -135 20 -157 6 -8
-5 -20 -31 -28 -58 -7 -26 -15 -58 -19 -70 -5 -18 -1 -22 28 -28 73 -15 102
-30 175 -91 41 -35 83 -64 94 -64 10 0 40 14 66 30 56 36 131 65 193 75 25 4
53 12 63 17 32 17 57 70 57 123 0 93 -44 140 -263 284 -70 45 -136 94 -147
108 -28 36 -26 77 6 102 32 25 46 26 83 6 41 -20 45 -42 16 -71 -32 -32 -31
-37 6 -68 25 -21 41 -26 86 -26 47 0 59 4 84 29 52 52 30 128 -47 162 -56 25
-164 32 -229 16z"/>
<path d="M1943 2506 c-88 -29 -152 -85 -198 -176 -36 -72 -39 -112 -16 -227
12 -55 21 -115 21 -133 0 -25 11 -43 53 -84 97 -97 202 -125 317 -86 72 24
163 76 197 112 22 23 57 107 49 116 -3 2 -20 -1 -38 -6 -97 -31 -215 -18 -304
34 -47 28 -124 108 -124 130 0 11 44 14 239 14 l239 0 -12 53 c-16 68 -39 109
-89 164 -61 66 -126 96 -217 100 -45 2 -92 -3 -117 -11z m38 -123 c47 -43 89
-107 89 -133 0 -6 -38 -10 -100 -10 -96 0 -101 1 -109 23 -17 44 -23 112 -12
140 9 22 16 27 46 27 29 0 46 -9 86 -47z"/>
<path d="M5195 2003 c-55 -20 -197 -50 -272 -59 -35 -3 -63 -10 -63 -14 0 -4
7 -27 16 -51 21 -61 37 -367 29 -564 -6 -144 -24 -296 -41 -339 -6 -14 13 -16
185 -16 126 0 191 4 191 10 0 6 -8 73 -17 148 -25 199 -25 704 0 816 9 44 16
80 15 81 -2 2 -21 -4 -43 -12z"/>
<path d="M643 1960 c-307 -81 -533 -355 -533 -647 0 -144 56 -312 136 -410 97
-119 283 -214 443 -229 36 -3 77 -7 91 -8 48 -6 196 14 264 35 153 46 245 140
262 266 8 60 -19 132 -60 158 -33 22 -42 15 -50 -42 -18 -125 -77 -235 -153
-283 -69 -44 -106 -53 -202 -48 -102 5 -165 33 -243 106 -186 174 -220 579
-71 835 45 77 116 147 180 177 39 20 65 24 138 24 81 1 95 -2 143 -28 75 -42
122 -113 122 -185 -1 -44 -35 -107 -71 -129 -124 -76 -276 -35 -341 92 l-21
40 -23 -29 c-35 -43 -58 -128 -51 -187 19 -157 128 -252 287 -252 64 0 85 5
142 32 295 142 296 532 1 681 -107 53 -258 66 -390 31z"/>
<path d="M2302 1829 c-102 -51 -96 -171 12 -220 109 -50 266 17 266 113 0 100
-164 163 -278 107z"/>
<path d="M4386 1825 c-161 -57 -94 -229 89 -228 118 1 194 69 162 146 -18 41
-46 65 -94 83 -49 17 -108 17 -157 -1z"/>
<path d="M1627 1784 c-40 -22 -168 -44 -248 -44 -38 0 -69 -3 -69 -6 0 -4 9
-22 21 -40 28 -46 46 -159 54 -349 3 -88 13 -191 20 -229 24 -114 80 -166 180
-166 114 0 178 67 241 248 18 53 34 90 34 82 6 -75 -14 -248 -37 -306 -4 -12
21 -14 172 -14 163 0 176 1 171 18 -40 126 -46 570 -10 751 6 30 6 31 -18 22
-34 -13 -269 -61 -298 -61 -19 0 -21 -4 -15 -22 3 -13 13 -70 22 -128 l16
-105 -27 -100 c-31 -117 -60 -181 -88 -196 -28 -15 -47 -5 -65 38 -14 31 -18
89 -22 330 l-6 291 -28 -14z"/>
<path d="M2908 1775 c-135 -37 -241 -159 -274 -315 -18 -90 -5 -208 33 -287
35 -75 109 -148 190 -186 62 -29 77 -32 163 -32 86 0 101 3 160 31 80 38 144
99 176 167 39 85 38 86 -63 65 -152 -31 -271 3 -376 108 -129 128 -180 352
-82 362 61 6 165 -87 203 -181 13 -33 19 -37 40 -32 132 33 152 239 29 296
-49 22 -129 24 -199 4z"/>
<path d="M5627 1775 c-103 -28 -194 -110 -242 -218 -99 -226 -17 -471 193
-570 61 -29 76 -32 162 -32 88 0 101 3 162 33 81 40 159 120 182 188 21 63 21
65 -11 53 -16 -6 -66 -13 -113 -16 -108 -7 -192 13 -269 65 -48 32 -131 123
-131 145 0 4 124 7 275 7 l275 0 -7 33 c-44 232 -257 372 -476 312z m-19 -99
c54 -28 152 -151 152 -191 0 -3 -51 -5 -114 -5 l-113 0 -17 58 c-20 73 -20
102 0 130 18 25 52 28 92 8z"/>
<path d="M3662 1749 c-24 -10 -87 -28 -139 -38 -52 -11 -97 -22 -99 -24 -2 -2
3 -35 10 -73 8 -38 19 -157 25 -264 12 -216 22 -274 54 -322 24 -36 97 -78
137 -78 49 0 102 22 142 58 45 40 100 147 120 231 12 54 28 68 28 26 0 -56
-22 -221 -35 -257 l-13 -38 174 0 c96 0 174 3 174 8 0 4 -5 25 -10 47 -29 116
-29 608 0 704 5 19 8 37 5 39 -2 2 -32 -5 -67 -17 -46 -15 -252 -61 -275 -61
0 0 6 -21 14 -47 10 -31 16 -89 16 -163 1 -101 -2 -126 -27 -200 -20 -59 -38
-94 -62 -118 -33 -33 -36 -34 -53 -18 -33 30 -42 95 -48 364 -4 181 -9 262
-17 261 -6 0 -31 -9 -54 -20z"/>
<path d="M4596 1558 c-44 -23 -201 -58 -258 -58 -21 0 -38 -3 -38 -6 0 -3 8
-31 17 -62 22 -70 24 -312 5 -382 -7 -25 -15 -53 -18 -62 -5 -17 8 -18 169
-18 l174 0 -15 53 c-21 69 -23 440 -4 506 7 23 12 44 10 46 -2 2 -21 -6 -42
-17z"/>
<path d="M2525 1549 c-45 -20 -151 -44 -238 -54 -49 -6 -57 -9 -52 -23 4 -9
14 -48 22 -87 19 -86 12 -295 -11 -370 -9 -27 -16 -51 -16 -52 0 -2 79 -3 176
-3 162 0 175 1 170 18 -3 9 -11 37 -18 62 -18 61 -17 418 0 479 8 23 12 44 10
46 -2 1 -21 -6 -43 -16z"/>
<path d="M3406 1154 c-18 -43 -122 -161 -172 -195 -21 -13 -21 -18 -13 -98 5
-47 7 -86 5 -88 -1 -2 -17 19 -34 47 -80 129 -214 120 -288 -20 -28 -53 -25
-206 4 -281 40 -100 115 -178 201 -207 20 -7 98 -12 195 -12 l162 0 -12 83
c-8 48 -14 199 -14 367 -1 157 -5 322 -8 367 l-7 83 -19 -46z m-217 -400 c36
-45 44 -99 37 -233 -7 -131 -13 -171 -26 -171 -15 0 -68 96 -91 165 -30 93
-33 213 -5 244 26 29 60 26 85 -5z"/>
<path d="M3729 920 c-57 -10 -143 -52 -163 -82 -44 -62 5 -138 89 -138 26 0
51 7 64 18 19 16 20 20 7 56 -16 47 -11 70 22 96 74 59 145 -37 96 -132 -12
-22 -36 -39 -97 -68 -45 -20 -89 -40 -97 -43 -28 -9 -99 -66 -116 -92 -81
-124 13 -276 154 -245 48 11 105 74 128 142 l17 51 17 -54 c9 -30 22 -65 29
-77 30 -57 166 -80 247 -43 44 20 77 65 88 117 9 42 -16 101 -47 113 -25 10
-71 4 -64 -8 27 -49 38 -90 35 -133 -4 -63 -29 -86 -57 -51 -15 18 -19 50 -24
212 -7 215 -16 252 -79 307 -55 49 -151 69 -249 54z m96 -387 c-32 -117 -101
-154 -97 -51 2 46 22 87 71 148 l36 45 3 -40 c2 -22 -4 -68 -13 -102z"/>
<path d="M4900 893 c-152 -78 -143 -243 20 -347 160 -102 195 -141 172 -190
-25 -56 -111 -59 -164 -6 -32 33 -38 82 -12 118 14 21 14 23 -13 33 -104 41
-194 5 -193 -78 1 -89 101 -143 267 -143 221 0 347 84 313 210 -15 55 -61 98
-212 200 -70 47 -133 95 -139 107 -29 54 23 107 81 83 36 -15 41 -51 9 -74
l-22 -15 27 -24 c37 -34 81 -41 125 -20 66 33 66 97 -2 147 -23 17 -46 22
-115 24 -79 3 -92 1 -142 -25z"/>
<path d="M4650 906 c0 -3 9 -20 20 -38 37 -62 21 -167 -47 -301 -18 -38 -39
-67 -45 -65 -5 2 -21 31 -35 63 -91 222 -113 281 -113 306 l0 29 -141 0 c-109
0 -139 -3 -133 -12 4 -7 17 -29 29 -48 27 -42 265 -557 265 -571 0 -23 -55
-102 -78 -112 -21 -10 -27 -8 -43 11 -14 18 -16 29 -9 48 8 21 6 26 -13 33
-55 21 -117 -22 -117 -81 0 -21 11 -41 34 -64 28 -28 41 -34 77 -34 38 0 48 5
88 48 27 29 91 128 156 243 144 255 191 351 206 426 12 59 12 65 -8 90 -14 20
-30 29 -56 31 -21 2 -37 1 -37 -2z"/>
</g>
</svg>
