<?xml version="1.0" encoding="UTF-8"?><svg id="Calque_1" xmlns="http://www.w3.org/2000/svg" xmlns:xlink="http://www.w3.org/1999/xlink" viewBox="0 0 1920 1080"><defs><style>.cls-1,.cls-2,.cls-3{fill:none;}.cls-1,.cls-4{stroke-width:0px;}.cls-2{stroke-width:8.24px;}.cls-2,.cls-3{stroke:#edf0f9;stroke-miterlimit:10;}.cls-5{clip-path:url(#clippath);}.cls-3{stroke-width:7px;}.cls-4{fill:#f8faff;}</style><clipPath id="clippath"><path class="cls-1" d="M1920,47.5v1032.5H0v-202.5L.1,361.9.2,65S134,25.2,344.9,32.8c210.4,10.7,368.7,62,598.5,61.3C1285.8,88.7,1223,10.6,1558.2.1c247.1-3.2,361.8,47.4,361.8,47.4Z"/></clipPath></defs><path class="cls-4" d="M1920,47.5v1032.5H0v-202.5L.1,361.9.2,65S134,25.2,344.9,32.8c210.4,10.7,368.7,62,598.5,61.3C1285.8,88.7,1223,10.6,1558.2.1c247.1-3.2,361.8,47.4,361.8,47.4Z"/><g id="TRACÉ"><g class="cls-5"><path class="cls-3" d="M0,72.74c41.26,8.39,104.23,43.48,152.23,105.42,125.42,164.13,199.74,173.42,226.71,225.55,46.84,88.26-38.32,141.94-378.94-62.45"/><ellipse class="cls-3" cx="138.77" cy="296.79" rx="25.25" ry="113.81" transform="translate(-166.43 177.65) rotate(-43.62)"/><path class="cls-3" d="M0,416.1c147.06,95.23,372.35,219.1,531.06,69.68,44.9-48.77-3.1-126.19-110.83-183.96C305.9,239.27,306.56,72.06,293.39,0"/><path class="cls-3" d="M114.55,0s55.74,192.35,125.03,188.87c56.9-3.87,3.48-188.87,3.48-188.87"/><path class="cls-3" d="M152.48,0s29.42,95.58,49.16,91.71S204.35,0,204.35,0"/><path class="cls-3" d="M365,0s-34.84,138.94,124.26,267.84c135.48,103.35,183.48,90.58,305.42,167.23,133.55,83.61,222.58,282.97,363.48,218.32,116.9-71.61,1.55-252-53.42-304.26C989.77,231.84,721.97,131.38,669.26,0"/><path class="cls-3" d="M438.94,0s20.13,128.19,118.45,188.92c115.35,69.24,180.77,75.82,261.68,118.02,105.29,52.65,181.16,270.97,246.97,233.06,73.55-43.39-46.06-200.16-147.1-243.21C669.39,188.92,615.19,56.87,591.45,0"/><path class="cls-3" d="M707.58,0c59.99,43.45,425.87,238.72,500.71,326.93,3.88,4.58,7.74,9.17,11.7,13.69,58.57,66.92,164.33,242.42,51.54,370.66-36.24,41.2-92.57,58.53-145.42,43.76-127.72-35.7-218.79-172.44-334.92-199.75-211.35-33.12-234.58,83.01-408.77,84.17C150.16,631.32,0,482.25,0,482.25"/><path class="cls-3" d="M947.06,0c48.52,121.52,272.65,192.35,366.71,292.23,188.13,216,53.42,437.81,142.84,510.97,89.42,73.16,336.77,32.52,463.39-12.77"/><path class="cls-3" d="M1061.39,0c40.26,43.71,124.65,80.87,185.81,136.61,31.61,29.15,144.77,163.35,186.34,148.65C1487.97,262.03,1391.19,96.35,1391.97,0"/><path class="cls-3" d="M1203.06,0c59.87,45.26,101.01,123.06,126.97,111.06,31.59-14.59-5.42-111.06-5.42-111.06"/><path class="cls-3" d="M1501.13,0c-58.45,112.31,42.58,224.87,42.58,346.81-1.74,74.87-74.32,268.26,0,340.26,113.03,99.1,380.13,0,380.13,0"/><path class="cls-3" d="M1537.52,0c-.21,63.84,31.74,142.03,51.87,228.74s-29.92,275.58,23.23,293.42c78.97,26.32,64.26-250.06,48.77-303.48,0,0-41.03-190.39-18.58-218.68"/><path class="cls-3" d="M1761.26,0c-119.23,51.45-24,179.97,0,318.55,7.94,66.12-31.85,135.93-53.89,189.35-19.6,47.52,4.63,102.13,53.24,118.83,35.26,12.11,86.47,10.79,159.38-30.24"/><path class="cls-3" d="M1822.42,0s-109.94,108.74,97.58,316.69"/><path class="cls-3" d="M1823.45-1.45s61.68,20.13,104,73.55"/><path class="cls-3" d="M1852.35,0s-23.23,112.61,71.48,193.65"/><path class="cls-3" d="M1920,322.16c-123.9-16-92.94,39.74-121.32,94.97-16.52,38.71-62.97,87.23-34.58,129.55,38.19,54.19,155.9,21.68,155.9,21.68"/><path class="cls-3" d="M1923.84,347.19s-92.05-2.32-86.28,125.42c5.77,67.39,89.9,67.39,89.9,67.39"/><path class="cls-3" d="M1927.45,866.68s-271.1,44.52-410.06,17.03c-77.56-16.6-89.04-62.24-145.93-87.39-16.27-7.19-34.54-8.58-51.78-4.22-34.1,8.6-89.21,28.36-62.8,62.2,37.16,47.61,182.32,155.29,221.81,225.71"/><ellipse class="cls-3" cx="1399.87" cy="901.79" rx="23.28" ry="83.39" transform="translate(-195.98 1377.33) rotate(-49.38)"/><path class="cls-2" d="M1553,1080s-41.81-95.65,66.19-113.06c95.87-15.1,218.36-4.65,304.65-32.13"/><path class="cls-2" d="M1612.23,1080s-17.42-81.71,68.52-85.19c85.94-3.48,134.68,31.03,175.92,85.19"/><path class="cls-2" d="M1424.48,1088.1c-64.26-64.26-136.26-86.71-250.84-170.32-121.38-81.95-154.06-202.06-392.52-269.42-114.65-27.89-175.23,40.47-263.14,70-32.38,10.88-66.81,14.27-100.78,10.71C242.61,710.79,190.61,594.67,0,624.35"/><path class="cls-2" d="M1272.93,1080s-110.9-134.35-210.77-132.81c-50.71,2.32-30.97,132.81-30.97,132.81"/><path class="cls-2" d="M1076.87,1080s-7.74-64.27,34.84-66.41c42.58-2.14,84.39,70.64,84.39,70.64"/><path class="cls-2" d="M937.52,1084.23s101.03-185.81-97.55-333.29c-149.81-90.58-269.42,61.55-401.03,54.58-174.97-12.77-182.74-113.81-310.84-108s-160.26,138.19-96.39,211.35,199.74,135.87,212.52,175.35"/><path class="cls-2" d="M338.29,1088.1c-44.13-84-104.52-82.84-176.52-136.26-77.63-42.2-82.19-146.43-25.2-167.31,4.47-1.64,9.18-2.53,13.92-3.01,103.78-10.43,153.68,117.79,270.25,123.87,132.77,2.32,195.28-83.88,291.5-73.16,99.85,11.12,218.31,121.61,166.05,247.77"/><ellipse class="cls-3" cx="282.28" cy="928.07" rx="30.47" ry="142.16" transform="translate(-631.42 602.25) rotate(-53.46)"/><path class="cls-3" d="M502.03,1088.1s15.1-205.55,183.48-186.3c166.45,21.79,119.61,201.01,119.61,201.01"/><path class="cls-3" d="M546.55,1084.23s30.46-108.39,110.07-89.81,64.12,104.52,64.12,104.52"/></g></g></svg>